<?xml version="1.0" standalone="yes"?>
<svg xmlns="http://www.w3.org/2000/svg" width="512" height="512">
<path style="fill:#fcfcfc; stroke:none;" d="M256 449C267.825 440.297 276.913 425.3 286.25 414C305.021 391.282 323.979 368.718 342.75 346L362.586 322C364.959 319.149 369.872 315.014 369.872 311C369.872 306.703 364.302 302.058 361.753 299C353.972 289.662 346.055 280.43 338.389 271C335.844 267.869 329.24 262.461 329.917 258C331.97 244.463 355.46 236.963 357.108 223C357.735 217.687 349.36 210.722 346.246 207C334.32 192.744 310.261 171.649 326 153L326 152L322 149L280 201L279 201C273.6 192.366 264.276 178.417 255 174L202 239C193.711 233.145 187.548 223.835 181.196 216C179.26 213.612 175.3 210.338 175.344 207C175.447 199.281 191.381 185.839 196.247 180C209.54 164.048 222.965 148.164 236 132C241.974 124.593 249.628 117.473 254 109L256 109C261.181 120.31 274.984 136.627 285 144L288 140C281.66 130.416 273.132 122.381 269.785 111C267.371 102.793 272.84 97.2892 272.046 90C271.561 85.5554 266.471 81.2545 263.753 78C261.985 75.8826 259.757 72.1243 256.925 71.3457C253.578 70.4253 250.867 74.8756 249.08 77.0008C242.679 84.6125 236.445 92.36 230.08 100C208.183 126.282 186.261 152.544 164.576 179C159.517 185.171 143.128 198.83 143.128 207C143.128 211.845 150.06 217.586 153 221C160.063 229.202 166.705 237.763 173.728 246C176.514 249.267 181.807 253.725 182.847 258C184.023 262.832 176.345 268.731 173.59 272C165.557 281.534 157.507 291.138 149.88 301C147.67 303.859 142.758 308.038 143.175 312C143.633 316.352 149.21 320.908 151.95 324C159.152 332.128 165.961 340.659 172.92 349C200.283 381.795 231.914 413.775 256 449M313 239C307.381 236.325 303.844 230.702 299.92 226C295.554 220.77 286.746 213.755 285.006 207.039C283.51 201.267 295.243 195.042 300 195.319C307.247 195.741 325.718 213.601 325.812 221C325.885 226.806 316.169 234.365 313 239M257 212L284.754 245L294.183 259L284.389 273L257 306L256 306L228.414 273L218.306 259L227.08 246L257 212M258 344C265.698 327.194 283.724 311.079 295.728 297C299.789 292.237 304.385 283.633 310.025 280.752C313.493 278.98 315.942 282.685 317.92 285.005C322.255 290.09 339.198 305.086 337.698 312C335.69 321.25 321.582 332.796 315.586 340C296.483 362.953 274.849 385.358 258 410C249.392 405.806 242.824 394.284 236.753 387C222.516 369.917 207.989 353.083 193.753 336C189.374 330.745 174.704 318.126 175.255 311C175.541 307.313 179.853 303.674 182.08 301C188.121 293.749 194.321 286.535 200 279C207.09 282.455 212.093 291.023 217.08 297C229.522 311.912 242.167 332.754 258 344z"/>
</svg>
